{
	"asset":{
		"generator":"Khronos glTF Blender I/O v4.3.47",
		"version":"2.0"
	},
	"scene":0,
	"scenes":[
		{
			"name":"Scene",
			"nodes":[
				0
			]
		}
	],
	"nodes":[
		{
			"mesh":0,
			"name":"hull_LOD0"
		}
	],
	"materials":[
		{
			"doubleSided":true,
			"name":"hull",
			"pbrMetallicRoughness":{
				"baseColorTexture":{
					"index":0
				},
				"metallicFactor":0,
				"roughnessFactor":0.6000000238418579
			}
		}
	],
	"meshes":[
		{
			"name":"hull",
			"primitives":[
				{
					"attributes":{
						"POSITION":0,
						"NORMAL":1,
						"TEXCOORD_0":2
					},
					"indices":3,
					"material":0
				}
			]
		}
	],
	"textures":[
		{
			"sampler":0,
			"source":0
		}
	],
	"images":[
		{
			"mimeType":"image/jpeg",
			"name":"Image_0",
			"uri":"textures/Image_0.jpg"
		}
	],
	"accessors":[
		{
			"bufferView":0,
			"componentType":5126,
			"count":58342,
			"max":[
				5.758019924163818,
				5.759522914886475,
				3.906372547149658
			],
			"min":[
				-5.758019924163818,
				-5.759522914886475,
				-5.542027950286865
			],
			"type":"VEC3"
		},
		{
			"bufferView":1,
			"componentType":5126,
			"count":58342,
			"type":"VEC3"
		},
		{
			"bufferView":2,
			"componentType":5126,
			"count":58342,
			"type":"VEC2"
		},
		{
			"bufferView":3,
			"componentType":5123,
			"count":108273,
			"type":"SCALAR"
		}
	],
	"bufferViews":[
		{
			"buffer":0,
			"byteLength":700104,
			"byteOffset":0,
			"target":34962
		},
		{
			"buffer":0,
			"byteLength":700104,
			"byteOffset":700104,
			"target":34962
		},
		{
			"buffer":0,
			"byteLength":466736,
			"byteOffset":1400208,
			"target":34962
		},
		{
			"buffer":0,
			"byteLength":216546,
			"byteOffset":1866944,
			"target":34963
		}
	],
	"samplers":[
		{
			"magFilter":9729,
			"minFilter":9987
		}
	],
	"buffers":[
		{
			"byteLength":2083492,
			"uri":"hull_LOD0.bin"
		}
	]
}
