{
	"asset":{
		"generator":"Khronos glTF Blender I/O v4.3.47",
		"version":"2.0"
	},
	"scene":0,
	"scenes":[
		{
			"name":"Scene",
			"nodes":[
				0
			]
		}
	],
	"nodes":[
		{
			"mesh":0,
			"name":"hull_LOD1"
		}
	],
	"materials":[
		{
			"doubleSided":true,
			"name":"hull.001",
			"pbrMetallicRoughness":{
				"baseColorTexture":{
					"index":0
				},
				"metallicFactor":0,
				"roughnessFactor":0.6000000238418579
			}
		}
	],
	"meshes":[
		{
			"name":"hull.001",
			"primitives":[
				{
					"attributes":{
						"POSITION":0,
						"NORMAL":1,
						"TEXCOORD_0":2
					},
					"indices":3,
					"material":0
				}
			]
		}
	],
	"textures":[
		{
			"sampler":0,
			"source":0
		}
	],
	"images":[
		{
			"mimeType":"image/jpeg",
			"name":"Image_0",
			"uri":"textures/Image_0.jpg"
		}
	],
	"accessors":[
		{
			"bufferView":0,
			"componentType":5126,
			"count":13038,
			"max":[
				5.758019924163818,
				5.759522914886475,
				3.906372547149658
			],
			"min":[
				-5.758019924163818,
				-5.759522914886475,
				-5.542027950286865
			],
			"type":"VEC3"
		},
		{
			"bufferView":1,
			"componentType":5126,
			"count":13038,
			"type":"VEC3"
		},
		{
			"bufferView":2,
			"componentType":5126,
			"count":13038,
			"type":"VEC2"
		},
		{
			"bufferView":3,
			"componentType":5123,
			"count":20196,
			"type":"SCALAR"
		}
	],
	"bufferViews":[
		{
			"buffer":0,
			"byteLength":156456,
			"byteOffset":0,
			"target":34962
		},
		{
			"buffer":0,
			"byteLength":156456,
			"byteOffset":156456,
			"target":34962
		},
		{
			"buffer":0,
			"byteLength":104304,
			"byteOffset":312912,
			"target":34962
		},
		{
			"buffer":0,
			"byteLength":40392,
			"byteOffset":417216,
			"target":34963
		}
	],
	"samplers":[
		{
			"magFilter":9729,
			"minFilter":9987
		}
	],
	"buffers":[
		{
			"byteLength":457608,
			"uri":"hull_LOD1.bin"
		}
	]
}
