{
	"asset":{
		"generator":"Khronos glTF Blender I/O v4.3.47",
		"version":"2.0"
	},
	"scene":0,
	"scenes":[
		{
			"name":"Scene",
			"nodes":[
				0
			]
		}
	],
	"nodes":[
		{
			"mesh":0,
			"name":"city_LOD0",
			"translation":[
				0,
				0,
				0.10999999940395355
			]
		}
	],
	"materials":[
		{
			"doubleSided":true,
			"name":"ground",
			"pbrMetallicRoughness":{
				"baseColorTexture":{
					"index":0
				},
				"metallicFactor":0,
				"roughnessFactor":0.6000000238418579
			}
		}
	],
	"meshes":[
		{
			"name":"city",
			"primitives":[
				{
					"attributes":{
						"POSITION":0,
						"NORMAL":1,
						"TEXCOORD_0":2
					},
					"indices":3,
					"material":0
				}
			]
		}
	],
	"textures":[
		{
			"sampler":0,
			"source":0
		}
	],
	"images":[
		{
			"mimeType":"image/jpeg",
			"name":"Image_1",
			"uri":"textures/Image_1.jpg"
		}
	],
	"accessors":[
		{
			"bufferView":0,
			"componentType":5126,
			"count":248495,
			"max":[
				1.9037985801696777,
				1.9038017988204956,
				4.730957984924316
			],
			"min":[
				-1.9037985801696777,
				-1.9038017988204956,
				3.7773373126983643
			],
			"type":"VEC3"
		},
		{
			"bufferView":1,
			"componentType":5126,
			"count":248495,
			"type":"VEC3"
		},
		{
			"bufferView":2,
			"componentType":5126,
			"count":248495,
			"type":"VEC2"
		},
		{
			"bufferView":3,
			"componentType":5125,
			"count":438522,
			"type":"SCALAR"
		}
	],
	"bufferViews":[
		{
			"buffer":0,
			"byteLength":2981940,
			"byteOffset":0,
			"target":34962
		},
		{
			"buffer":0,
			"byteLength":2981940,
			"byteOffset":2981940,
			"target":34962
		},
		{
			"buffer":0,
			"byteLength":1987960,
			"byteOffset":5963880,
			"target":34962
		},
		{
			"buffer":0,
			"byteLength":1754088,
			"byteOffset":7951840,
			"target":34963
		}
	],
	"samplers":[
		{
			"magFilter":9729,
			"minFilter":9987
		}
	],
	"buffers":[
		{
			"byteLength":9705928,
			"uri":"city_LOD0.bin"
		}
	]
}
