{
	"asset":{
		"generator":"Khronos glTF Blender I/O v4.3.47",
		"version":"2.0"
	},
	"scene":0,
	"scenes":[
		{
			"name":"Scene",
			"nodes":[
				0
			]
		}
	],
	"nodes":[
		{
			"mesh":0,
			"name":"city_LOD1",
			"translation":[
				0,
				0,
				0.10999999940395355
			]
		}
	],
	"materials":[
		{
			"doubleSided":true,
			"name":"ground.001",
			"pbrMetallicRoughness":{
				"baseColorTexture":{
					"index":0
				},
				"metallicFactor":0,
				"roughnessFactor":0.6000000238418579
			}
		}
	],
	"meshes":[
		{
			"name":"city.001",
			"primitives":[
				{
					"attributes":{
						"POSITION":0,
						"NORMAL":1,
						"TEXCOORD_0":2
					},
					"indices":3,
					"material":0
				}
			]
		}
	],
	"textures":[
		{
			"sampler":0,
			"source":0
		}
	],
	"images":[
		{
			"mimeType":"image/jpeg",
			"name":"Image_1",
			"uri":"textures/Image_1.jpg"
		}
	],
	"accessors":[
		{
			"bufferView":0,
			"componentType":5126,
			"count":21930,
			"max":[
				1.8706434965133667,
				1.9038017988204956,
				4.730957984924316
			],
			"min":[
				-1.8857553005218506,
				-1.9038017988204956,
				3.7773373126983643
			],
			"type":"VEC3"
		},
		{
			"bufferView":1,
			"componentType":5126,
			"count":21930,
			"type":"VEC3"
		},
		{
			"bufferView":2,
			"componentType":5126,
			"count":21930,
			"type":"VEC2"
		},
		{
			"bufferView":3,
			"componentType":5123,
			"count":25239,
			"type":"SCALAR"
		}
	],
	"bufferViews":[
		{
			"buffer":0,
			"byteLength":263160,
			"byteOffset":0,
			"target":34962
		},
		{
			"buffer":0,
			"byteLength":263160,
			"byteOffset":263160,
			"target":34962
		},
		{
			"buffer":0,
			"byteLength":175440,
			"byteOffset":526320,
			"target":34962
		},
		{
			"buffer":0,
			"byteLength":50478,
			"byteOffset":701760,
			"target":34963
		}
	],
	"samplers":[
		{
			"magFilter":9729,
			"minFilter":9987
		}
	],
	"buffers":[
		{
			"byteLength":752240,
			"uri":"city_LOD1.bin"
		}
	]
}
