{
	"asset":{
		"generator":"Khronos glTF Blender I/O v4.3.47",
		"version":"2.0"
	},
	"scene":0,
	"scenes":[
		{
			"name":"Scene",
			"nodes":[
				0
			]
		}
	],
	"nodes":[
		{
			"mesh":0,
			"name":"city_LOD2",
			"translation":[
				0,
				0,
				0.10999999940395355
			]
		}
	],
	"materials":[
		{
			"doubleSided":true,
			"name":"ground.002",
			"pbrMetallicRoughness":{
				"baseColorTexture":{
					"index":0
				},
				"metallicFactor":0,
				"roughnessFactor":0.6000000238418579
			}
		}
	],
	"meshes":[
		{
			"name":"city.002",
			"primitives":[
				{
					"attributes":{
						"POSITION":0,
						"NORMAL":1,
						"TEXCOORD_0":2
					},
					"indices":3,
					"material":0
				}
			]
		}
	],
	"textures":[
		{
			"sampler":0,
			"source":0
		}
	],
	"images":[
		{
			"mimeType":"image/jpeg",
			"name":"Image_1",
			"uri":"textures/Image_1.jpg"
		}
	],
	"accessors":[
		{
			"bufferView":0,
			"componentType":5126,
			"count":4104,
			"max":[
				1.8672175407409668,
				1.8472086191177368,
				4.62654972076416
			],
			"min":[
				-1.8580961227416992,
				-1.8672207593917847,
				3.7774147987365723
			],
			"type":"VEC3"
		},
		{
			"bufferView":1,
			"componentType":5126,
			"count":4104,
			"type":"VEC3"
		},
		{
			"bufferView":2,
			"componentType":5126,
			"count":4104,
			"type":"VEC2"
		},
		{
			"bufferView":3,
			"componentType":5123,
			"count":4419,
			"type":"SCALAR"
		}
	],
	"bufferViews":[
		{
			"buffer":0,
			"byteLength":49248,
			"byteOffset":0,
			"target":34962
		},
		{
			"buffer":0,
			"byteLength":49248,
			"byteOffset":49248,
			"target":34962
		},
		{
			"buffer":0,
			"byteLength":32832,
			"byteOffset":98496,
			"target":34962
		},
		{
			"buffer":0,
			"byteLength":8838,
			"byteOffset":131328,
			"target":34963
		}
	],
	"samplers":[
		{
			"magFilter":9729,
			"minFilter":9987
		}
	],
	"buffers":[
		{
			"byteLength":140168,
			"uri":"city_LOD2.bin"
		}
	]
}
